<svg id="Layer_1" xmlns="http://www.w3.org/2000/svg" viewBox="0 0 512 512"><style>.st0,.st1,.st2{fill:none;stroke:#231f20;stroke-width:18;stroke-miterlimit:10}.st1{stroke-linejoin:round}.st2{stroke-linecap:round}</style><path class="st0" d="M128.4 236.7h1.4c24.3 0 41 24.5 32.1 47.1L107 369c-7.8 12.1-10.2 26.9-6.5 40.8 5.9 22.5 26.3 38.2 49.6 38.2h202.7c25.1 0 47-16.9 53.4-41.2 3.2-12.2 2.1-25.2-3-36.7l-59.9-133.4M76.2 64h353.4l-86.4 172.7H162.6z"/><path class="st1" d="M196.1 236.7h115.2l-11.1 25h-94.6zM414.7 88.1h38.1c20.7 2.1 29.5 27.3 14.7 41.9L402 203.2h-42"/><path class="st2" d="M110.5 236.7h284.8"/><path class="st0" d="M351.1 261.7h52.1c19.4 0 31.3 21.4 21 37.9l-30.7 49"/></svg>