<svg id="Layer_1" xmlns="http://www.w3.org/2000/svg" viewBox="0 0 512 512"><style>.st0{fill:#231f20}</style><path class="st0" d="M385.1 58H126.9c-11.5 0-20.9 9.4-20.9 20.9v354.3c0 11.5 9.4 20.9 20.9 20.9h258.3c11.5 0 20.9-9.4 20.9-20.9V78.9c-.1-11.5-9.5-20.9-21-20.9zM320 208c0 35.3-28.7 64-64 64s-64-28.7-64-64c0-35.4 28.7-64 64-64s64 28.6 64 64zm74 225.1c0 4.9-4 8.9-8.9 8.9H126.9c-4.9 0-8.9-4-8.9-8.9V78.9c0-4.9 4-8.9 8.9-8.9H160v186c0 16.7 9.9 31.6 24.7 36.7 25.2 8.7 71.3 25 71.3 25s46.2-16.4 71.3-25c14.7-5.1 24.7-20 24.7-36.7V70h33.1c4.9 0 8.9 4 8.9 8.9v354.2z"/><path class="st0" d="M238.5 210h35l10.3-17.9h-55.6zm17.5 30.2l13.7-23.7h-27.4z"/><path class="st0" d="M233.8 155.5c-6.8 2.9-12.9 7-18.1 12.2s-9.4 11.3-12.2 18.1c-3 7-4.5 14.5-4.5 22.2s1.5 15.1 4.5 22.2c2.9 6.8 7 12.9 12.2 18.1 5.2 5.2 11.3 9.3 18.1 12.2 7 3 14.5 4.5 22.2 4.5s15.2-1.5 22.2-4.5c6.8-2.9 12.9-7 18.1-12.2 5.2-5.2 9.4-11.3 12.2-18.1 3-7 4.5-14.5 4.5-22.2s-1.5-15.2-4.5-22.2c-2.9-6.8-7-12.9-12.2-18.1-5.2-5.2-11.3-9.4-18.1-12.2-7-3-14.5-4.5-22.2-4.5s-15.2 1.5-22.2 4.5zm61.2 30.1L281 210h16v6.5h-19.8L256 253.2l-21.2-36.8H215V210h16l-14-24.4h78z"/></svg>