<svg id="Layer_1" xmlns="http://www.w3.org/2000/svg" viewBox="0 0 512 512"><style>.st0{fill:#231f20}</style><path class="st0" d="M414 166c-5-34.1-20.6-65-45-89.4-30.2-30.2-70.3-46.8-113-46.8s-82.8 16.6-112.9 46.8c-24.4 24.4-40 55.3-45 89.4-4.9 33.4.6 66.8 16 96.7l142 225.1L397.8 263l.2-.3c15.4-29.9 20.9-63.4 16-96.7zm-32.2 88.1L256 450.8 130.2 254.1c-13.6-26.4-18.4-55.9-14-85.5 4.5-30.1 18.3-57.5 39.9-79.1 26.7-26.7 62.2-41.4 100-41.4s73.3 14.7 100 41.4c21.6 21.6 35.4 49 39.9 79.1 4.2 29.5-.6 59.1-14.2 85.5z"/><path class="st0" d="M256 88.1c-58.2 0-105.6 47.4-105.6 105.6S197.8 299.3 256 299.3c58.2 0 105.6-47.4 105.6-105.6S314.2 88.1 256 88.1zm34 186.2c-10.8 4.6-22.2 6.9-34 6.9s-23.3-2.3-34-6.9c-10.4-4.4-19.8-10.7-27.8-18.8-8-8-14.4-17.4-18.8-27.8-4.6-10.8-6.9-22.2-6.9-34s2.3-23.3 6.9-34c4.4-10.4 10.7-19.8 18.8-27.8 8-8 17.4-14.4 27.8-18.8 10.8-4.6 22.2-6.9 34-6.9s23.3 2.3 34 6.9c10.4 4.4 19.8 10.7 27.8 18.8 8 8 14.4 17.4 18.8 27.8 4.6 10.8 6.9 22.2 6.9 34s-2.3 23.3-6.9 34c-4.4 10.4-10.7 19.8-18.8 27.8-8 8.1-17.4 14.4-27.8 18.8z"/><path class="st0" d="M318.9 157.6H193.1l21.1 36.6H192V209h30.7l33.3 57.6 33.3-57.6H320v-14.8h-22.2l21.1-36.6zm-25.5 14.7l-12.6 21.9h-49.5l-12.6-21.9h74.7zM272.3 209L256 237.1 239.8 209h32.5z"/></svg>