<svg id="Layer_1" xmlns="http://www.w3.org/2000/svg" viewBox="0 0 512 512"><style>.st0{fill:#231f20}</style><path class="st0" d="M198.1 307.9c-.1.8-.1 1.7 0 2.6 0 .2-.1.4-.1.7-.1 1.2-.1 2.3 1.3 2.4.7.1 1.3 0 2-.1h.5c.5 0 1 0 1.4-.1h.7c1.3.1 2.6.2 4 .2 1.5 0 2.9-.1 4.4-.2 1.9.2 3.8.1 5.7.1 2.2 0 4.5.1 6.7.2h1.1c2.9 5 5.9 10 8.8 14.9 2.5 4.2 4.9 8.4 7.4 12.5 3 5.1 5.3 9.4 7.2 13.7l.4.9c1.1 2.5 2.4 5.4 4.5 7.2.5.8.9 1.7 1.5 2.4.3.4.8.4 1 0 .3-.5.6-.9 1-1.4.3-.2.5-.6.6-1 1.5-2.5 2.9-5.3 4-8.1l.1-.1c.9-1.3 1.8-2.6 2.5-3.9 1.3-2.3 2.5-4.6 3.8-6.8 1.4-2.4 2.7-4.8 4-7.2 1.2-2.3 2.7-4.6 4-6.8 1.3-2.1 2.7-4.3 3.9-6.6.8-1.5 1.8-3 2.7-4.4 1.2-1.8 2.4-3.7 3.4-5.7 2.3.1 4.6.2 6.9.2 1 0 3.3.1 5-.2h2.1c1.6 0 3.2-.2 4.8-.3.7-.1 1.5-.1 2.2-.2 2.1.1 4.3.5 6.3.2.2 0 .5-.3.4-.6-.3-3-.2-6-.5-9 0-.3-.2-.6-.6-.6-1.6 0-3.2.2-4.8.4h-1c-1.7 0-3.3.1-5 .2-1.5.1-3 .1-4.5.2-1.4 0-2.8.1-4.2.3-.6.1-1.2.1-1.8.2.6-1.1 1.2-2.2 1.9-3.3.8-1.3 1.6-2.7 2.3-4.1 1.7-3.5 3.5-6.4 5.5-8.9 1.8-2.3 2.9-4.6 4-7.1l.7-1.4c.5-1 1.1-1.9 1.7-2.9.6-1 1.3-2.1 1.8-3.2l.1-.1c.6-.7 1-1.5 1.6-2.3.3-.4-.1-.9-.5-.9-.9-.1-1.9-.1-2.9 0-1.9-.2-3.7-.2-5.5-.2-1.9 0-3.8 0-5.6-.2-2.2-.2-4.3-.2-6.3 0-.3 0-.6.1-.8.1-3.2.3-6.4.2-9.7.3-.4-.1-.8-.1-1.2-.1-1.4-.1-2.9-.1-4.4-.1h-1.9c-4.3 0-9.1 0-13.9-.1-2.3-.1-4.6-.1-6.9-.1-6.9 0-13.8.1-20.3.4-2.1.1-4.1.2-6.2.3h-17.9c-1.3-.1-2.5-.2-3.9-.3-.7-.1-1.3-.1-2.1 0-.3 0-.5.5-.4.7.4 1.2 1.3 2.1 1.9 3.2.6 1.8 1.9 3.3 2.9 4.8 1.7 2.6 3.1 5.4 4.6 8.1 1.6 2.9 3.3 5.8 5.3 8.5.1.1.1.2.2.3l4.6 7.9c-1 .1-1.9.2-2.9.3-1.4.1-2.8.3-4.4.3-1.2 0-2.4-.1-3.6-.1-1 0-2-.1-2.9-.1-1.4-.2-2.8-.1-4.2-.1-.1 0-.2-.1-.3-.1-.9.1-3.6-.5-4.1.6-.3.7-.4 1.5-.3 2.3 0 .5.1.9.2 1.4zm114.8-3.8h-.1.1zm-38.8 13l-2.9 5c-.7 1.2-1.4 2.3-2.2 3.5-1.1 1.8-2.3 3.6-3.4 5.5-2.8 4.8-5.6 9.7-8.2 14.4l-1.2 2.1c-.8-1.6-1.7-3.1-2.7-4.6-.3-.5-.7-1-1-1.6-2.1-3.4-4.1-7.1-5.9-10.9-1.4-3-3.2-5.7-4.9-8.3-.5-.8-1-1.5-1.5-2.3-.4-.7-.8-1.4-1.3-2.1-.5-.9-1.1-1.9-1.7-2.8-.2-.3-.5-.6-.7-.8 1 0 2 0 3-.1 3.2-.2 6-.4 9-.5 1.2 0 2.4-.1 3.6-.1 3.6 0 7.1.1 10.7.1 2.6.1 5.2.1 8 .1 1.4 0 2.7-.2 3.8-.2.4 0 .8-.1 1.2 0-.5 1.1-1.1 2.4-1.7 3.6zM218 280.7c-.3-.5-.6-.9-1-1.3h1.2c4 0 8.1 0 12.1.1 1.4 0 2.8 0 4.2.1h1c2.2 0 4.5-.2 6.7-.3.9-.1 1.8-.1 2.8-.2 1.7-.1 3.4.1 5.2.4 1.5.2 3 .4 4.5.4h1.5c3.6 0 7.2-.1 10.9-.2 3.2-.1 6.3-.1 9.5-.2h2.9c2.9-.1 5.8-.2 8.6-.4 2.7-.1 5.5-.3 8.2-.4l-1.6 2.8c-.2.3-.5.6-.7.8-1.2 1.6-2.1 3.4-2.9 5.1-.3.6-.5 1.1-.8 1.6l-1.6 2.7c-.8 1.2-1.6 2.4-2.5 3.6-1.9 2.6-3.8 5.3-5 8.5-1.9 0-3.8-.2-5.7-.3-1.7-.1-3.6-.3-5.4-.3h-.9c-2 0-4.2.1-6.5.4-.3 0-.6.1-.9.1-.9 0-1.9-.1-2.8-.3-.6-.1-1.2-.2-1.7-.2-.7-.1-1.5-.1-2.2-.1-2.2 0-4.4.2-6.5.5-1.5.2-2.9.3-4.4.4-3.1.2-6.2 0-9.3-.1-1.3 0-2.6-.1-3.9-.1-1.1-1.9-2.3-3.8-3.5-5.6l-5.7-9.8c-.3-.6-.6-1.2-.8-1.8-1-2-1.9-4-3-5.9z"/><path class="st0" d="M171.6 334.9c1 2.4 1.6 5.3 3.4 7.4.6 1.3 1.3 2.5 2 3.8.7 2 2 3.9 3.2 5.7 1.5 2.2 3.1 5 5.3 6.9 2.5 3.1 5.2 6 8.1 8.7.6.7 1.2 1.3 1.9 1.9 2 1.9 4.5 4.4 7.2 5.7 1.1.8 2.3 1.6 3.4 2.4.1.1.1.1.2.1.7.5 1.4.9 2.2 1.3 2.2 1.4 4.5 2.6 6.8 3.8 2.1 1.2 4.2 2.4 6.4 3.5 1.8.9 3.8 1.2 5.9 1.6 2.1.7 4.1 1.3 6.3 1.9 3.3 1.2 6.9 1.9 10.3 2h.5c3.8.5 7.6.8 11.5.8 7.7 0 15.1-1 22.2-2.8.7-.1 1.5-.2 2.2-.4.7-.2 1.4-.4 2-.7 2.6-.4 6.4-1.4 8.6-2.9 1.4-.4 3.6-1.4 5.2-2.7 5.1-2.5 10-5.6 14.5-9 5.2-3.6 9.7-8 13.9-12.9 3-3.5 6-7.1 8.4-11.1.4-.6.7-1.2.9-1.9.7-1.1 1.3-2.2 1.9-3.3 1.2-1.5 2.1-3.3 3-4.9.1-.1.1-.4 0-.5.2-.5.4-1 .6-1.6 2.3-3.9 3.6-8 4.3-12.6.5-1.8.9-3.6 1.3-5.5.9-2.2 1.2-4.3 1.1-6.6.5-3.8.8-7.6.8-11.5 0-4.9-.4-9.7-1.2-14.4-.2-2-.7-4-1-6.1-.4-2.2-1-4.1-1.8-6.1-.2-.8-.5-1.6-.8-2.4-.1-.6-.2-1.2-.6-1.7-.2-.4-.3-.9-.5-1.3-.6-2.1-1.5-4.1-2.3-6.1-.8-2.2-2.2-4.3-3.3-6.4-.5-1-1.2-2.2-2-3-4-6.5-8.8-12.4-14.2-17.7-.9-1-1.9-2-2.9-2.8-1.3-1.1-2.6-2.4-4.1-3.3-2-2.8-6-4.7-8.6-6.3-2.3-1.4-4.8-2.7-7.3-3.8-3.5-1.8-7.2-3.3-10.9-4.6-1.3-.7-2.6-1.2-4.3-1.5-3.9-.8-7.6-2-11.5-2.8-4.1-.7-8.3-.8-12.5-.8-7.6.1-15.7.8-23.1 2.8-4.9 1.2-9.7 2.9-14.3 4.9-2.4 1-4.7 2.2-7 3.4-.6.3-1 .6-1.5.9-8.1 4.6-15.4 10.4-21.7 17.2-.7.4-1.3 1.1-1.9 1.7-2 2-3.9 4.3-5.5 6.5s-2.9 4.5-4 7c-2.2 3.6-4.1 7.3-5.7 11.2-.7 1-1.2 2-1.5 3.2-.3.6-.6 1.1-.8 1.8v.2c-1 1.6-1.7 4.4-1.9 5-.7 2.5-1.3 5.1-1.6 7.7-.1.8-.1 1.6-.1 2.3-.5 2.7-.8 5.5-1 8.3-.6 3.4-.8 7.2-.2 10.6.3 7.1 1.4 14 3.2 20.6.1.9.2 1.7.4 2.5.4 2.4 1.6 4.6 2.5 6.7zm9.1-62c1.2-2.3 2.2-4.8 3.3-7.1.7-1.4 1.3-2.7 2-4.1l2.4-3.9c.4-.5.8-1 1-1.5 4.4-6.5 9.8-12.4 15.8-17.3 1.2-.9 2.4-1.8 3.7-2.6 3.3-2 6.3-4.3 9.7-6.1 6.8-3.6 14.3-6.3 21.9-7.9 3.9-.8 8-1.1 12-1.5h.3c1.1 0 2.2-.1 3.4-.1 26 0 49.1 12.3 63.9 31.4.5 1.3 1.5 2.4 2.2 3.6 1 1.8 2.3 3.3 3.5 4.8.5.8 1 1.7 1.4 2.5 1 3.3 2.7 6.5 4.4 9.5 1.6 4.1 2.9 8.4 3.7 12.7 0 .5.1 1.1.1 1.6.1 2.2.5 4.2 1.1 6.3.3 2.7.4 5.5.4 8.2v.4c-.1.7-.1 1.3-.2 1.9-.2 3.3-.4 6.6-.7 9.8-.2 1.6-.5 3.1-.9 4.7 0 .1-.1.1-.1.2-.4.8-.6 1.8-.7 2.7-.3 1.4-.7 3-1.1 4.6-.2.7-.5 1.4-.7 2.1-.2.6-.5 1.2-.8 1.7-1.4 2.3-2.1 5.2-3.3 7.7-.5 1-.9 2-1.4 3-1.7 3.1-3.6 6-5.6 8.8-.4.3-.7.6-1.1.9-2.8 2.7-4.8 6.1-7.5 8.9-.3.4-.7.7-1 1.1-2.5 2.4-5.1 4.6-7.9 6.6-1.8.9-3.4 2.2-5 3.4-2.3 1.4-4.7 2.8-7.1 4-.1.1-.2.1-.3.2l-.1.1c-7 3.4-14.5 5.8-22.5 7-1.5 0-2.9.1-4.4.2-2.1.2-4.2.5-6.3.5-.8 0-1.5 0-2.3.1-1.9-.3-3.8 0-5.7-.3-2.7-.3-5.4-.7-8.1-.9-6.8-1.2-13.3-3.3-19.4-6.1-.7-.5-1.5-.9-2.3-1.3-3.4-1.8-6.5-3.4-9.5-5.7-1.8-1.4-3.7-2.6-5.4-4-.7-.6-1.3-1.2-2.1-1.6-.6-.8-1.5-1.6-2.4-2.2-2.5-2.3-4.8-4.8-7-7.5-.4-.7-.8-1.3-1.3-2-1.5-2-3-3.9-4.3-6-.6-.9-1.2-2-1.9-2.9-2.2-3.8-4.1-7.8-5.7-12l-.3-1.2c-.8-3-1.6-6.1-2.6-9.1-.3-.9-.5-2.1-.8-3-.4-2.2-.8-4.5-1-6.8-.1-2.7-.1-5.4-.1-8.1 0-1.5-.1-2.9-.2-4.4.2-8.3 2-16.4 4.9-24z"/><path class="st0" d="M407.1 53.8V44c0-10.3-14.6-17.3-47.3-22.7C332 16.5 295.1 14 256 14s-76 2.5-103.8 7.2c-32.7 5.5-47.3 12.5-47.3 22.7v9.8c-24.1 8.4-36.4 18.7-36.4 30.7v36.7c0 12.6 13.1 23.4 39 32.1l33.7 303.4.2 2 1.4 1.4c1.6 1.6 38.9 38 113.1 38 74.2 0 111.5-36.5 113.1-38l1.4-1.4 33.9-305.4c25.9-8.7 39-19.5 39-32.1V84.4c.2-12-12.1-22.2-36.2-30.6zM158.2 31.7c26.6-4.1 61.4-6.4 97.8-6.4s71.1 2.3 97.8 6.4c32.2 5 40 10.5 41.7 12.2-1.7 1.7-9.5 7.2-41.7 12.2-26.6 4.1-61.4 6.4-97.8 6.4s-71.1-2.3-97.8-6.4c-32.2-5-40-10.5-41.7-12.2 1.8-1.7 9.6-7.2 41.7-12.2zm-41.9 25.4c7.7 3.7 19.6 6.8 36 9.6 27.8 4.6 64.6 7.2 103.8 7.2 39.1 0 76-2.5 103.8-7.2 16.4-2.7 28.2-5.9 36-9.6v22.8c-.8 1-6.8 7.1-42 12.6-26.6 4.1-61.4 6.4-97.8 6.4s-71.1-2.3-97.8-6.4c-35.2-5.4-41.2-11.6-42-12.6V57.1zm243.4 396.1c-7.2 6.3-41.8 33.4-103.7 33.4-61.6 0-96.5-27.2-103.7-33.4l-32.9-296.4c2.2.6 4.4 1.2 6.7 1.7 34.8 8.6 80.9 13.4 129.9 13.4s95.1-4.8 129.9-13.4c2.3-.6 4.5-1.2 6.7-1.7l-32.9 296.4zm72.4-332.1c0 16.5-67 39.4-176.1 39.4s-176.1-23-176.1-39.4v-18.2c9.5 7 24.9 13.2 46.2 18.4 34.8 8.5 80.9 13.1 129.9 13.1s95.1-4.7 129.9-13.1c21.3-5.2 36.7-11.3 46.2-18.4v18.2zm-48.9-10.8c-33.9 8.3-79.1 12.8-127.2 12.8s-93.3-4.6-127.2-12.8c-36.1-8.8-48.9-19.4-48.9-25.8 0-4.7 6.9-11.7 25-18.6v14.4c0 10.3 14.6 17.3 47.3 22.7 27.8 4.6 64.6 7.2 103.8 7.2 39.1 0 76-2.5 103.8-7.2 32.7-5.5 47.3-12.5 47.3-22.7V65.9c18 6.9 25 13.9 25 18.6 0 6.4-12.8 17-48.9 25.8z"/></svg>