<svg id="Layer_1" xmlns="http://www.w3.org/2000/svg" viewBox="0 0 560 512"><style>.st0,.st1,.st2{stroke:url(#SVGID_1_);stroke-width:1.0161;stroke-miterlimit:10}.st1,.st2{stroke:url(#SVGID_2_)}.st2{stroke:url(#SVGID_3_)}</style><linearGradient id="SVGID_1_" gradientUnits="userSpaceOnUse" x1="87.529" y1="256.038" x2="472.621" y2="256.038"><stop offset="0" stop-color="#fff"/><stop offset="1"/></linearGradient><path class="st0" d="M280 64c-52.1 0-58.7.2-79.2 1.1-20.4.9-34.4 4.2-46.6 8.9-12.7 4.9-23.3 11.5-34 22.2s-17.2 21.4-22.2 34c-4.7 12.2-8 26.1-8.9 46.6-.9 20.4-1.1 27-1.1 79.1s.2 58.7 1.1 79.2c.9 20.4 4.2 34.4 8.9 46.6 4.9 12.7 11.5 23.3 22.2 34s21.4 17.2 34 22.2c12.2 4.7 26.1 8 46.6 8.9s27 1.1 79.2 1.1 58.7-.2 79.2-1.1c20.4-.9 34.4-4.2 46.6-8.9 12.7-4.9 23.3-11.5 34-22.2s17.2-21.4 22.2-34c4.7-12.2 8-26.1 8.9-46.6.9-20.5 1.1-27 1.1-79.2s-.2-58.7-1.1-79.2c-.9-20.4-4.2-34.4-8.9-46.6-4.9-12.7-11.5-23.3-22.2-34s-21.4-17.2-34-22.2c-12.2-4.7-26.1-8-46.6-8.9-20.5-.7-27.1-1-79.2-1zm0 34.6c51.3 0 57.3.2 77.6 1.1 18.7.8 28.9 4 35.7 6.6 9 3.5 15.4 7.6 22.1 14.3 6.7 6.7 10.9 13.1 14.3 22.1 2.6 6.8 5.8 16.9 6.6 35.7.9 20.3 1.1 26.3 1.1 77.6s-.2 57.3-1.1 77.6c-.8 18.7-4 28.9-6.6 35.7-3.5 9-7.6 15.4-14.3 22.1-6.7 6.7-13.1 10.9-22.1 14.3-6.8 2.6-16.9 5.8-35.7 6.6-20.3.9-26.3 1.1-77.6 1.1s-57.3-.2-77.6-1.1c-18.7-.8-28.9-4-35.7-6.6-9-3.5-15.4-7.6-22.1-14.3-6.7-6.7-10.9-13.1-14.3-22.1-2.6-6.8-5.8-16.9-6.6-35.7-.9-20.3-1.1-26.3-1.1-77.6s.2-57.3 1.1-77.6c.8-18.7 4-28.9 6.6-35.7 3.5-9 7.6-15.4 14.3-22.1 6.7-6.7 13.1-10.9 22.1-14.3 6.8-2.6 16.9-5.8 35.7-6.6 20.3-.9 26.3-1.1 77.6-1.1"/><linearGradient id="SVGID_2_" gradientUnits="userSpaceOnUse" x1="180.881" y1="255.999" x2="379.117" y2="255.999"><stop offset="0" stop-color="#fff"/><stop offset="1"/></linearGradient><path class="st1" d="M280 320c-35.4 0-64-28.7-64-64s28.7-64 64-64 64 28.7 64 64-28.6 64-64 64zm0-162.6c-54.4 0-98.6 44.1-98.6 98.6s44.2 98.6 98.6 98.6 98.6-44.2 98.6-98.6-44.2-98.6-98.6-98.6z"/><linearGradient id="SVGID_3_" gradientUnits="userSpaceOnUse" x1="358.973" y1="153.503" x2="406.017" y2="153.503"><stop offset="0" stop-color="#fff"/><stop offset="1"/></linearGradient><path class="st2" d="M405.5 153.5c0 3.1-.6 6-1.8 8.8-1.2 2.8-2.8 5.3-5 7.5s-4.6 3.8-7.5 5c-2.8 1.2-5.8 1.8-8.8 1.8-3.1 0-6-.6-8.8-1.8-2.8-1.2-5.3-2.8-7.5-5s-3.8-4.6-5-7.5c-1.2-2.8-1.8-5.8-1.8-8.8 0-3.1.6-6 1.8-8.8 1.2-2.8 2.8-5.3 5-7.5s4.6-3.8 7.5-5 5.8-1.8 8.8-1.8c3.1 0 6 .6 8.8 1.8s5.3 2.8 7.5 5 3.8 4.6 5 7.5c1.2 2.8 1.8 5.8 1.8 8.8z"/></svg>