<svg id="Layer_1" xmlns="http://www.w3.org/2000/svg" viewBox="0 0 512 512"><style>.st0{fill:#1da1f2}</style><path class="st0" d="M172.2 447C350.4 447 448 299.2 448 171.3c0-4.2 0-8.3-.2-12.5 18.9-13.6 35.3-30.8 48.3-50.2-17.4 7.7-36.1 12.9-55.7 15.3 20.1-11.9 35.3-31 42.7-53.7-18.7 11.1-39.5 19.1-61.6 23.4C403.8 74.7 378.6 63 350.8 63c-53.5 0-96.9 43.5-96.9 96.9 0 7.5.9 14.9 2.5 22.1-80.5-3.9-152-42.7-199.7-101.3-8.3 14.4-13 31-13 48.9 0 33.6 17.2 63.3 43.1 80.7-15.9-.6-30.8-4.9-43.8-12.1v1.3c0 46.9 33.4 86.1 77.7 95.1-8.1 2.2-16.6 3.4-25.5 3.4-6.3 0-12.3-.6-18.2-1.7 12.3 38.6 48.2 66.5 90.5 67.3-33.3 26.1-75 41.6-120.3 41.6-7.7 0-15.5-.3-23.1-1.3C66.6 431 117.6 447 172.2 447"/></svg>