<svg id="Layer_1" xmlns="http://www.w3.org/2000/svg" viewBox="0 0 512 512"><style>.st0,.st1,.st2{fill:none;stroke:#231f20;stroke-width:18;stroke-miterlimit:10}.st1{stroke-linejoin:round}.st2{stroke-linecap:round}</style><path class="st0" d="M624.9 236.7h1.4c24.3 0 41 24.5 32.1 47.1l-55 85.1c-7.8 12.1-10.2 26.9-6.5 40.8 5.9 22.5 26.3 38.2 49.6 38.2h202.7c25.1 0 47-16.9 53.4-41.2 3.2-12.2 2.1-25.2-3-36.7l-59.9-133.4"/><path class="st0" d="M572.7 64h353.4l-86.4 172.7H659.1z"/><path class="st1" d="M692.6 236.7h115.1l-11 25H702zM911.2 88.1h38.1c20.7 2.1 29.5 27.3 14.7 41.9l-65.5 73.2h-42.1"/><path class="st2" d="M607 236.7h284.8"/><path class="st0" d="M847.6 261.7h52.1c19.4 0 31.3 21.4 21 37.9l-30.7 49M128 160h224v224H128zm224 0H128v-32L96 96h256zM128 384c0 35.3-28.7 64-64 64h352c-35.3 0-64-28.7-64-64M192 32h96v32h-96zm48 128v96m0-192v32"/><path class="st0" d="M320 288H160c-17.7 0-32-14.3-32-32h224c0 17.7-14.3 32-32 32zm32-192h32c19.5 0 35.3 15.8 35.3 35.3v89.3c0 19.5-15.8 35.3-35.3 35.3h-32"/></svg>