<svg id="Layer_1" xmlns="http://www.w3.org/2000/svg" viewBox="0 0 512 512"><style>.st0{fill:#231f20}</style><path class="st0" d="M256 184.2l10.3-17.8h-20.6z"/><path class="st0" d="M239.4 199.4c5.3 2.2 10.9 3.4 16.6 3.4s11.4-1.1 16.6-3.4c5.1-2.2 9.7-5.2 13.6-9.2 3.9-3.9 7-8.5 9.2-13.6 2.2-5.3 3.4-10.9 3.4-16.6 0-5.8-1.1-11.4-3.4-16.6-2.2-5.1-5.2-9.7-9.2-13.6-3.9-3.9-8.5-7-13.6-9.2-5.3-2.2-10.9-3.4-16.6-3.4s-11.4 1.1-16.6 3.4c-5.1 2.2-9.7 5.2-13.6 9.2s-7 8.5-9.2 13.6c-2.2 5.3-3.4 10.9-3.4 16.6 0 5.8 1.1 11.4 3.4 16.6 2.2 5.1 5.2 9.7 9.2 13.6 3.9 4 8.5 7 13.6 9.2zm-14.2-37.9h12l-10.6-18.3h58.6l-10.6 18.3h12v4.9h-14.8L256 193.9l-15.9-27.6h-14.8v-4.8z"/><path class="st0" d="M269.1 161.5l7.7-13.4h-41.6l7.7 13.4z"/><path class="st0" d="M476.8 56.3H35.2c-14.9 0-26.9 12.1-26.9 26.9v345.6c0 14.9 12.1 26.9 26.9 26.9h441.6c14.9 0 26.9-12.1 26.9-26.9V83.2c0-14.9-12-26.9-26.9-26.9zM256 112c26.5 0 48 21.5 48 48s-21.5 48-48 48-48-21.5-48-48 21.5-48 48-48zm232.3 316.8c0 6.3-5.1 11.5-11.5 11.5H35.2c-6.3 0-11.5-5.1-11.5-11.5V83.2c0-6.3 5.1-11.5 11.5-11.5H176V192c0 16.7 8.3 31.6 20.5 36.7 21 8.7 59.5 27.3 59.5 27.3s38.5-18.6 59.5-27.3c12.3-5.1 20.5-20 20.5-36.7V71.7h140.8c6.3 0 11.5 5.1 11.5 11.5v345.6z"/></svg>