<?xml version="1.0" encoding="utf-8"?>
<!-- Generator: Adobe Illustrator 21.0.1, SVG Export Plug-In . SVG Version: 6.00 Build 0)  -->
<svg version="1.1" id="Layer_1" xmlns="http://www.w3.org/2000/svg" xmlns:xlink="http://www.w3.org/1999/xlink" x="0px" y="0px"
	 viewBox="0 0 512 512" style="enable-background:new 0 0 512 512;" xml:space="preserve">
<style type="text/css">
	.st0{fill:none;stroke:#231F20;stroke-width:18;stroke-miterlimit:10;}
	.st1{fill:none;stroke:#231F20;stroke-width:18;stroke-linejoin:round;stroke-miterlimit:10;}
	.st2{fill:none;stroke:#231F20;stroke-width:18;stroke-linecap:round;stroke-miterlimit:10;}
</style>
<g>
	<path class="st0" d="M128.4,236.7h1.4c24.3,0,41,24.5,32.1,47.1L107,369c-7.8,12.1-10.2,26.9-6.5,40.8l0,0
		c5.9,22.5,26.3,38.2,49.6,38.2h202.7c25.1,0,47-16.9,53.4-41.2v0c3.2-12.2,2.1-25.2-3-36.7l-59.9-133.4"/>
	<polygon class="st0" points="76.2,64 429.6,64 343.2,236.7 162.6,236.7 	"/>
	<polygon class="st1" points="196.1,236.7 311.3,236.7 300.2,261.7 205.6,261.7 	"/>
	<path class="st1" d="M414.7,88.1h38.1c20.7,2.1,29.5,27.3,14.7,41.9l-65.5,73.2H360"/>
	<line class="st2" x1="110.5" y1="236.7" x2="395.3" y2="236.7"/>
	<path class="st0" d="M351.1,261.7h52.1c19.4,0,31.3,21.4,21,37.9l-30.7,49"/>
</g>
</svg>
