<svg id="Layer_1" xmlns="http://www.w3.org/2000/svg" viewBox="0 0 512 512"><style>.st0{fill:#1da1f2}</style><path class="st0" d="M173.6 444c175.4 0 271.5-145.5 271.5-271.4 0-4.1 0-8.2-.2-12.3 18.6-13.4 34.7-30.3 47.5-49.4-17.1 7.6-35.5 12.7-54.8 15.1 19.8-11.7 34.7-30.5 42-52.9-18.4 10.9-38.9 18.8-60.6 23C401.6 77.5 376.7 66 349.4 66c-52.7 0-95.4 42.8-95.4 95.4 0 7.4.9 14.7 2.5 21.8-79.2-3.8-149.6-42-196.6-99.7-8.2 14.2-12.8 30.5-12.8 48.1 0 33.1 16.9 62.3 42.4 79.4-15.7-.6-30.3-4.8-43.1-11.9v1.3c0 46.2 32.9 84.8 76.5 93.6-8 2.2-16.3 3.3-25.1 3.3-6.2 0-12.1-.6-17.9-1.7 12.1 38 47.4 65.5 89.1 66.2-32.8 25.7-73.8 41-118.4 41-7.6 0-15.3-.3-22.7-1.3 41.7 26.7 91.9 42.5 145.7 42.5"/></svg>