<svg id="Layer_1" xmlns="http://www.w3.org/2000/svg" viewBox="0 0 512 512"><style>.st0{fill:#231f20}</style><path class="st0" d="M92.9 274.1c-.2 2.3-.4 4.8-.1 7.2-.1.6-.2 1.3-.3 1.9-.2 3.3-.4 6.5 3.6 6.7 1.9.1 3.8 0 5.6-.3.5 0 1 .1 1.5.1 1.4 0 2.9-.1 4.1-.2l1.1-.1h.9c3.7.2 7.4.5 11.1.6 4.1.1 8.2-.3 12.4-.6 5.3.6 10.6.3 16 .3 6.3 0 12.6.4 18.9.5 1 0 2 0 3.1-.1 8.3 14 16.5 28 24.8 42 6.9 11.8 13.8 23.6 20.8 35.3 8.4 14.2 14.8 26.5 20.2 38.4l1.1 2.5c3 6.9 6.7 15.1 12.7 20.3 1.4 2.3 2.7 4.7 4.3 6.9.8 1.1 2.1 1.1 2.9 0 .9-1.3 1.8-2.6 2.7-4 .9-.6 1.5-1.6 1.7-2.7v-.1c4.3-7.2 8.1-14.9 11.4-22.7l.2-.2c2.5-3.5 5.1-7.2 7.1-11 3.5-6.5 7.2-12.9 10.8-19.3 3.8-6.7 7.7-13.5 11.4-20.3 3.5-6.5 7.5-12.9 11.3-19 3.7-6 7.6-12.2 11.1-18.6 2.3-4.2 5.1-8.3 7.7-12.3 3.4-5.1 6.8-10.3 9.6-16 6.5.2 13 .5 19.5.5 2.9 0 9.3.4 14.1-.5h6.1c4.5 0 9.1-.4 13.5-.8 2-.2 4.1-.3 6.2-.5 5.9.4 12 1.3 17.6.4.7-.1 1.3-1 1.3-1.6-.7-8.4-.5-17-1.5-25.4-.1-.9-.7-1.7-1.7-1.7-4.5-.1-9.1.4-13.5 1h-2.8c-4.7 0-9.4.2-14.1.5-4.2.2-8.4.4-12.6.4-3.9 0-8 .4-11.9.7-1.7.2-3.4.3-5.1.4 1.6-3.1 3.5-6.2 5.2-9.2 2.2-3.7 4.5-7.5 6.4-11.5 4.8-9.8 9.8-18 15.3-25.2 5.1-6.6 8.1-13.1 11.3-19.9l1.9-4c1.4-2.8 3-5.4 4.7-8.2 1.8-2.9 3.6-5.8 5.2-9 .1-.1.2-.2.3-.4 1.7-2 2.9-4.4 4.5-6.5.8-1.1-.3-2.5-1.5-2.5-2.5-.2-5.5-.4-8.2 0-5.2-.5-10.5-.5-15.6-.5-5.2 0-10.6 0-15.8-.5-6.1-.6-12-.6-17.7 0-.8.1-1.6.2-2.4.4-9 .9-18.1.6-27.2.8-1.1-.2-2.3-.3-3.4-.4-4.1-.3-8.2-.2-12.3-.2-1.8 0-3.5.1-5.3.1-12 0-25.6 0-39.1-.3-6.5-.2-13-.2-19.5-.3-19.5-.1-38.8.2-57.2 1.1-5.8.3-11.6.6-17.4.8h-50.4c-3.6-.2-7.2-.5-11.1-.9-1.9-.3-3.8-.4-5.8-.1-.8.1-1.5 1.3-1.2 2.1 1.3 3.3 3.6 6 5.3 9.1 1.8 4.9 5.3 9.2 8.2 13.6 4.8 7.3 8.7 15.2 13 22.8 4.6 8.2 9.3 16.4 14.9 23.9.2.2.4.5.5.7l12.9 22.4c-2.7.2-5.4.5-8 .7-3.9.4-7.9.8-12.3.8h-.1c-3.4 0-6.7-.2-10.1-.2-2.8-.1-5.5-.2-8.3-.2-3.9-.5-7.9-.3-11.8-.2-.2-.1-.5-.2-.9-.2-2.4.3-10.2-1.4-11.6 1.6-.9 2-1.2 4.2-.9 6.4.4 2 .6 3.2.7 4.5zm323.2-10.7h-.4.4zm-109.2 36.5l-8.1 14.1c-2 3.3-4.1 6.5-6.1 9.7-3.2 5.1-6.5 10.2-9.5 15.4-7.9 13.4-15.6 27.2-23.1 40.6l-3.3 5.9c-2.1-4.6-4.9-8.9-7.5-13-.9-1.5-1.9-2.9-2.8-4.4-6-9.7-11.6-20-16.6-30.8-3.9-8.3-8.9-15.9-13.8-23.3-1.4-2.2-2.9-4.3-4.3-6.5-1.2-1.9-2.4-3.9-3.5-5.8-1.5-2.6-3.1-5.3-4.8-7.8-.6-.9-1.4-1.8-1.8-2.3 2.8.1 5.5-.1 8.3-.3 8.9-.6 17-1.1 25.2-1.4 3.3-.1 6.7-.2 10-.2 10-.1 20 .2 30.1.4 7.3.2 14.6.3 22.4.4 3.9 0 7.7-.4 10.7-.5 1.1.1 2.4-.2 3.4 0-1.4 3-3.2 6.6-4.9 9.8zM149 197.7c-.8-1.4-1.8-2.5-2.8-3.6h3.3c11.2 0 22.7.1 34.1.3 4 0 7.9.1 11.9.2h2.8c6.3 0 12.7-.4 18.8-.8 2.6-.2 5.2-.4 7.8-.5 4.9-.3 9.6.4 14.7 1 4.1.6 8.4 1.1 12.7 1.2h4.2c10.2 0 20.4-.2 30.6-.5 8.9-.2 17.8-.4 26.7-.5 2.7 0 5.4-.1 8.1-.1 8.1-.2 16.3-.6 24.3-1.1 7.6-.4 15.4-.8 23.1-1l-4.5 7.8c-.7.8-1.3 1.6-1.9 2.4-3.4 4.4-5.8 9.5-8.2 14.3-.8 1.6-1.5 3.2-2.3 4.6L348 229c-2.2 3.4-4.6 6.7-6.9 10-5.3 7.4-10.8 15-14.2 23.9-5.3 0-10.8-.5-16-.9-4.9-.4-10-.8-15.1-.9h-2.6c-5.7 0-11.7.4-18.4 1.2-.9.1-1.7.1-2.6.1-2.6 0-5.2-.4-8-.8-1.6-.2-3.3-.5-4.9-.6-2.1-.2-4.1-.3-6.2-.3-6.2 0-12.3.6-18.2 1.3-4.1.4-8.2.9-12.3 1.1-8.7.5-17.4.1-26.1-.3-3.7-.1-7.4-.3-11.1-.4-3.1-5.4-6.5-10.7-9.8-15.8L159.4 219c-.8-1.7-1.6-3.5-2.4-5.2-2.3-5.3-4.8-10.8-8-16.1z"/><path class="st0" d="M18.5 350.1c2.9 6.9 4.5 15 9.5 20.7 1.8 3.6 3.7 7.1 5.7 10.6 2.1 5.7 5.7 11 9.1 15.9 4.2 6.1 8.7 14.1 14.9 19.3 7 8.7 14.6 16.9 22.7 24.5 1.6 1.9 3.3 3.6 5.2 5.4 5.5 5.2 12.7 12.4 20.4 16 3.2 2.3 6.3 4.5 9.6 6.7.2.1.3.3.5.4 2 1.4 4 2.6 6.1 3.8 6.2 3.8 12.6 7.4 19.1 10.7 5.9 3.5 11.8 6.9 18.1 9.9 5 2.4 10.8 3.5 16.6 4.5 5.8 1.9 11.7 3.7 17.6 5.2 9.2 3.5 19.5 5.3 29.1 5.7h1.3c10.6 1.4 21.5 2.1 32.5 2.1 21.6 0 42.5-2.7 62.6-7.8 2.1-.2 4.1-.6 6.2-1 1.9-.4 3.8-1.1 5.6-1.9 7.4-1.3 18-4.1 24.3-8.1 4-1.1 10.1-4 14.6-7.7 14.5-7.2 28.1-15.6 40.9-25.3 14.5-10.2 27.2-22.4 39.1-36.3 8.4-9.9 16.8-20 23.5-31.1 1-1.7 1.9-3.5 2.6-5.3 1.9-3.1 3.7-6.2 5.4-9.4 3.3-4.3 5.8-9.4 8.4-13.7.2-.4.3-1 .1-1.5.6-1.5 1.1-2.9 1.6-4.4 6.4-10.9 10.1-22.6 12-35.6 1.4-5.1 2.6-10.2 3.7-15.4 2.5-6.1 3.4-12 3-18.6 1.4-10.6 2.1-21.5 2.1-32.5 0-13.8-1.1-27.2-3.2-40.4-.6-5.7-1.9-11.3-2.9-17.2-1-6.1-2.9-11.6-5.1-17.3-.7-2.3-1.5-4.6-2.3-6.8-.3-1.7-.7-3.5-1.6-4.9-.4-1.2-.9-2.5-1.4-3.7-1.8-5.8-4.3-11.5-6.4-17.1-2.3-6.2-6.2-12.1-9.2-18-1.5-2.9-3.4-6.1-5.8-8.5-11.3-18.2-24.7-34.9-40-49.7-2.5-2.9-5.3-5.5-8-8-3.6-3.2-7.3-6.8-11.6-9.3-5.6-7.8-16.8-13.3-24.1-17.6-6.5-3.8-13.5-7.5-20.5-10.6-9.9-4.9-20.2-9.2-30.8-12.8-3.5-2-7.4-3.2-12-4.2-10.9-2.2-21.5-5.8-32.5-7.7C283.3 0 271.4-.3 259.7-.1c-21.3.3-44.2 2.2-64.9 8-13.9 3.5-27.3 8.1-40.2 13.7-6.7 2.8-13.3 6.1-19.7 9.4-1.6.8-3 1.7-4.3 2.6-22.8 13-43.3 29.3-61 48.4-2 1.3-3.8 3.1-5.4 4.6-5.5 5.5-11 12-15.5 18.3-4.5 6.2-8.3 12.7-11.1 19.6-6.1 10.1-11.5 20.6-16.1 31.6-2 2.7-3.5 5.6-4.2 8.9-.9 1.6-1.7 3.2-2.2 5-.1.2-.1.4 0 .6-2.7 4.5-4.7 12.5-5.2 14.2-2.1 7.1-3.7 14.4-4.6 21.7-.3 2.2-.4 4.4-.4 6.5-1.3 7.6-2.2 15.4-2.8 23.3-1.8 9.5-2.3 20.1-.5 29.7.8 20 3.9 39.4 9.1 58 .3 2.4.5 4.8 1.1 7.1.9 6.9 4.2 13 6.7 19zM44 175.7c3.4-6.6 6.1-13.6 9.2-19.9 1.9-3.9 3.7-7.7 5.6-11.5 2.1-3.7 4.4-7.4 6.7-11 1.1-1.4 2.1-2.7 2.8-4.3 12.4-18.3 27.5-34.8 44.6-48.7 3.5-2.5 6.9-5 10.4-7.2 9.2-5.8 17.7-12.1 27.4-17.2 19.1-10.1 40.4-17.8 61.5-22.1 11.1-2.3 22.6-3 33.8-4.4.3 0 .6 0 .9-.1 3.2-.1 6.3-.2 9.5-.2 73.1 0 138.2 34.7 179.8 88.5 1.5 3.5 4.3 6.7 6.1 10 2.8 5 6.3 9.2 9.9 13.6 1.4 2.3 2.7 4.7 4 7 3 9.2 7.5 18.2 12.3 26.8 4.4 11.5 8 23.5 10.6 35.9l.3 4.5c.1 6.1 1.4 12 3.1 17.7.8 7.6 1.2 15.4 1.2 23.2v1.1c-.2 1.8-.3 3.7-.4 5.4-.7 9.2-1.2 18.5-2.1 27.7-.7 4.5-1.5 8.9-2.4 13.2-.1.2-.2.3-.3.5-1.1 2.4-1.6 5-2.1 7.5-.9 3.9-1.9 8.5-3.1 12.9-.7 2-1.4 4-2 6-.7 1.7-1.4 3.3-2.3 4.8-3.9 6.6-6 14.6-9.2 21.6-1.3 2.8-2.7 5.6-4 8.5-4.7 8.6-10 16.9-15.8 24.8-1.1.8-2.1 1.7-3.1 2.6-7.7 7.7-13.5 17.3-21.1 25.2-1 1-1.9 2-2.9 3-7 6.7-14.5 12.9-22.3 18.6-5.1 2.4-9.5 6.1-14 9.5-6.5 4-13.2 7.8-20.1 11.2-.3.2-.7.3-1 .5-.1.1-.2.1-.4.2-19.7 9.5-40.9 16.2-63.2 19.7-4.1 0-8.2.2-12.4.6-5.9.6-11.7 1.5-17.7 1.3-2.2 0-4.3 0-6.3.4-5.2-.8-10.6-.1-16-.7-7.6-.9-15.3-2-22.9-2.4-19.2-3.4-37.5-9.3-54.7-17.2-2.1-1.3-4.2-2.5-6.4-3.7-9.4-5-18.2-9.4-26.7-16-5-3.8-10.4-7.2-15.2-11.3-2.1-1.8-3.7-3.3-6-4.4-1.8-2.3-4.2-4.6-6.9-6.1-7-6.6-13.6-13.6-19.7-21-1-2-2.3-3.8-3.7-5.7-4.3-5.5-8.4-10.9-12.1-16.8-1.6-2.6-3.3-5.6-5.3-8.1-6.2-10.8-11.6-22-16-33.8-.3-1.1-.5-2.3-.9-3.5-2.2-8.6-4.5-17.2-7.3-25.6-.9-2.7-1.3-5.8-2.3-8.6-1.2-6.3-2.1-12.7-2.8-19.2-.1-7.6-.2-15.2-.4-22.8-.1-4.1-.3-8.2-.4-12.3 1.1-24 6.1-46.8 14.2-68.2z"/></svg>