<svg xmlns="http://www.w3.org/2000/svg" viewBox="0 0 512 512"><path d="M205.3 388.6c0-.4.1-.9.1-1.3 0-1.1-.3-2.3-.2-3.5 0-.2-.1-.4-.3-.4h-1.1c-.1 0-.3-.1-.5-.1-1.5.1-3 .3-4.6.5h-12.3c-2.9-.3-5.8-.6-8.7-.4v-16.5h4.5c.3.1.6.1.9.2 2 .3 4 .1 6-.2h9.4c.8 0 1.6.1 2.3.1.4 0 .7.1 1 .1.2 0 .4-.2.3-.4v-.8c0-.2 0-.3-.1-.5 0-1.4.2-3.5 0-5.3 0-.9-.1-1.7.1-2.6 0-.3-.2-.5-.4-.4-.5.1-1 0-1.5.1h-1c-4.9.8-9.9-.1-14.7.6h-6.9v-1.2c.1-1.1.1-2.1 0-3.1v-11.6h21c1.2.2 2.8.6 4.1.4h.2c.5 0 1.1-.2 1.6 0 .1.1.3 0 .4-.1.1-.1.1-.1.1-.3 0-.7-.1-1.4-.1-2.1.1-.6 0-1.4 0-2 0-1.9.1-3.9-.1-5.8 0-.2-.1-.4-.3-.3-1.5.1-3.1-.1-4.5.1h-.2c-3.1.3-6.1.7-9.1.7h-1.1c-.8 0-1.6 0-2.4-.1-3.8-.3-7.6 0-11.4.1h-2.7c-.8-.1-2.3-.4-3.6-.4-.7-.3-1.6-.1-2.3-.1-.2 0-.3.1-.3.3v3.5c0 .7 0 1.4.1 2.1-.2.7-.2 1.5-.3 2.3-.2 3.3.1 6.7.4 10v5.2c-.1 1.8-.3 3.7-.3 5.5 0 1.1.1 2.2.3 3.3v5c-.1 1.2-.3 2.4-.5 3.6-.4 3.7.3 7.4.4 11.1.1 2.9-.8 6-.1 8.9v1.1c0 .1 0 .1.1.2 0 .2.2.3.4.3.2-.1.3-.1.5-.1.3.1.6 0 1-.1 1.2-.1 2.5.1 3.7-.2.6 0 1.2 0 1.8-.1 2.1-.2 4.3-.1 6.4-.4h7.3c2.3.4 4.7.5 6.8.1.1 0 .3-.1.4-.1 1.2.1 2.4.1 3.6.1.9 0 1.8 0 2.6.1h3.2c.2 0 .3-.1.3-.3v-2.8c.3-.7.3-1.4.3-2zm-3.8-30.7z"/><path d="M480 256.2c0-12-1-23.8-2.8-35.3-.5-5-1.7-9.9-2.5-15-.9-5.3-2.5-10.2-4.5-15.1-.6-2-1.3-4-2-6-.3-1.5-.6-3-1.4-4.3-.4-1.1-.8-2.1-1.2-3.2-1.5-5.1-3.8-10.1-5.6-15-2.1-5.4-5.4-10.6-8.1-15.7-1.3-2.5-3-5.3-5-7.5-9.8-15.9-21.6-30.5-35-43.5-2.2-2.5-4.6-4.8-7.1-7-3.2-2.8-6.4-6-10.1-8.1-4.9-6.8-14.7-11.6-21.1-15.4-5.7-3.3-11.8-6.6-17.9-9.3-8.7-4.3-17.7-8.1-26.9-11.2-3.1-1.8-6.4-2.8-10.5-3.7-9.6-2-18.8-5-28.4-6.8-10.1-1.8-20.5-2.1-30.7-1.9-18.7.3-38.7 1.9-56.8 7-12.2 3-23.9 7.1-35.2 12-5.9 2.4-11.6 5.3-17.2 8.3-1.4.7-2.6 1.5-3.8 2.3-19.9 11.3-37.9 25.6-53.4 42.3-1.7 1.1-3.3 2.7-4.7 4.1-4.8 4.8-9.6 10.5-13.6 16-4 5.4-7.2 11.1-9.7 17.2-5.3 8.8-10.1 18.1-14.1 27.6-1.7 2.3-3 4.9-3.7 7.8-.8 1.4-1.5 2.8-1.9 4.4-.1.2-.1.4 0 .5-2.4 4-4.1 10.9-4.6 12.4-1.8 6.2-3.2 12.6-4 19-.2 1.9-.3 3.8-.3 5.7-1.1 6.7-1.9 13.5-2.5 20.4-1.5 8.3-2 17.6-.5 26 .7 17.5 3.4 34.5 7.9 50.8.2 2.1.5 4.2.9 6.2 1.3 5.6 4.2 10.9 6.4 16.2 2.5 6 4 13.1 8.4 18.1 1.6 3.1 3.2 6.2 5 9.3 1.8 5 5 9.6 8 13.9 3.7 5.3 7.6 12.3 13 16.9 6.1 7.6 12.8 14.8 19.8 21.5 1.4 1.6 2.9 3.1 4.6 4.7 4.9 4.6 11.1 10.9 17.8 14 2.7 2 5.6 4 8.4 5.9l.4.4c1.7 1.2 3.5 2.3 5.3 3.3 5.4 3.4 11 6.5 16.7 9.4 5.2 3 10.4 6 15.9 8.7 4.3 2.1 9.4 3 14.5 4 5.1 1.7 10.2 3.2 15.4 4.6 8.1 3.1 17.1 4.6 25.5 5h1.2c9.3 1.2 18.8 1.9 28.4 1.9 18.9 0 37.2-2.4 54.7-6.8 1.8-.2 3.6-.5 5.4-.9 1.7-.4 3.3-1 4.9-1.7 6.5-1.1 15.8-3.6 21.2-7.1 3.5-1 8.8-3.5 12.8-6.8 12.6-6.3 24.6-13.7 35.8-22.1 12.7-9 23.8-19.6 34.2-31.8 7.4-8.7 14.7-17.5 20.6-27.3.9-1.5 1.6-3 2.3-4.6 1.6-2.7 3.2-5.4 4.7-8.2 2.9-3.8 5.1-8.2 7.3-12 .2-.3.2-.9.1-1.3.5-1.3 1-2.6 1.4-3.9 5.6-9.6 8.8-19.8 10.5-31.1 1.2-4.4 2.3-8.9 3.2-13.5 2.2-5.3 3-10.5 2.6-16.2.9-9.4 1.6-18.9 1.6-28.5zm-24.9.9c-.1 1.6-.3 3.2-.4 4.7-.6 8.1-1 16.2-1.9 24.2-.6 3.9-1.3 7.7-2.1 11.5-.1.1-.2.3-.2.4-.9 2.1-1.3 4.4-1.8 6.6-.8 3.4-1.6 7.4-2.7 11.3-.6 1.8-1.2 3.5-1.8 5.3-.6 1.5-1.2 2.9-2 4.2-3.4 5.8-5.2 12.8-8 18.9-1.1 2.5-2.3 5-3.5 7.4-4.1 7.5-8.8 14.8-13.8 21.7-.9.7-1.8 1.5-2.7 2.3-6.8 6.7-11.8 15.1-18.5 22-.8.8-1.7 1.7-2.5 2.6-6.2 5.8-12.7 11.3-19.5 16.3-4.4 2.1-8.3 5.3-12.3 8.3-5.7 3.5-11.5 6.8-17.6 9.8-.3.1-.6.3-.9.4-.1 0-.2.1-.3.2-17.2 8.3-35.8 14.2-55.3 17.3-3.6 0-7.2.1-10.9.5-5.2.6-10.2 1.3-15.5 1.2-1.9 0-3.8 0-5.5.3-4.6-.7-9.3-.1-14-.6-6.7-.8-13.4-1.8-20.1-2.1-16.8-3-32.8-8.1-47.9-15-1.8-1.1-3.6-2.2-5.6-3.2-8.3-4.4-15.9-8.3-23.4-14-4.4-3.3-9.1-6.3-13.3-9.9-1.8-1.5-3.3-2.9-5.2-3.9-1.6-2-3.7-4-6-5.3-6.1-5.8-11.9-11.9-17.2-18.4-.9-1.7-2-3.3-3.3-5-3.7-4.8-7.4-9.5-10.6-14.7-1.4-2.3-2.9-4.9-4.6-7.1-5.4-9.4-10.1-19.3-14-29.6-.2-1-.5-2-.8-3-1.9-7.5-4-15-6.4-22.4-.8-2.3-1.1-5.1-2-7.5-1-5.5-1.9-11.1-2.5-16.8-.1-6.7-.1-13.3-.3-20-.1-3.6-.3-7.2-.4-10.8 1.1-20.9 5.5-40.9 12.6-59.6 2.9-5.8 5.4-11.9 8-17.4 1.6-3.4 3.2-6.8 5-10.1 1.9-3.3 3.8-6.5 5.8-9.6.9-1.2 1.9-2.4 2.4-3.8 10.9-16 24.1-30.4 39-42.6 3-2.2 6-4.4 9.1-6.3 8-5 15.5-10.6 23.9-15 16.7-8.8 35.3-15.6 53.8-19.4 9.7-2 19.8-2.6 29.6-3.8.3 0 .5 0 .8-.1 2.8-.1 5.5-.2 8.3-.2 64 0 120.9 30.4 157.3 77.4 1.4 3.1 3.7 5.9 5.4 8.8 2.4 4.3 5.6 8.1 8.6 11.9 1.2 2.1 2.4 4.1 3.5 6.2 2.6 8.1 6.6 15.9 10.8 23.4 3.9 10.1 7 20.6 9.2 31.4.1 1.3.2 2.7.3 4 .1 5.3 1.2 10.5 2.7 15.5.7 6.7 1 13.4 1 20.3.2.3.2.6.2.9z"/><path d="M133 284.9c0-.4-.3-.7-.7-.7-7 0-14.3-.1-21.3.5-.4-.1-.7-.1-1.1-.1-1.1 0-2.2-.2-3.3-.1-.1-.6-.3-1.1-.3-1.6-.1-.6-.2-1.1-.2-1.7v-4.1c-.1-4.4-.3-8.8-.1-13.2.3-7.3.2-14.7.1-22.1 0-.7.1-1.5.1-2.3 0-1 .1-2.1.1-3.1 0-1.1-.2-2.1-.1-3.1 0-.2-.1-.4-.3-.4h-3.5c-2 .1-4.1.2-6.1.2-.1 0-.1 0-.2-.1-.2-.1-.4 0-.5 0-.2.1-.4.3-.4.6v.2c-.2 2.1.1 4.2.2 6.4.1 2.3-.1 4.6-.1 6.9.1 5.4 0 10.8.1 16.2 0 .9.1 1.7.1 2.5v9.2c0 .8 0 1.7-.1 2.5-.1 1.9-.2 3.8-.2 5.7-.1.7-.1 1.5-.1 2.2.1 2.5 0 4.9.1 7.4 0 .2-.1.4-.1.6v.5c0 .1-.1.3-.1.3-.1.2.1.5.3.4 1-.1 2-.1 3-.1 1.7.2 3.5 0 5.2-.2 3.3-.3 6.6-.2 9.9-.1 3 .1 6.1 0 9.1-.1 3.3-.1 6.5.6 9.8.3.3 0 .7-.3.6-.7 0-2.9-.2-5.8.1-8.8zm30.3-157.5c0-.4-.3-.6-.7-.7-3.3-.1-6.6-.2-9.9 0-.5 0-.8.6-.5 1v.4c.2.4.2.9.3 1.5v.8c0 .8-.1 1.7-.2 2.4-.1 2.1 0 4.1.2 6.2v5.4c-.1 1.2-.1 2.4-.2 3.6 0 1.8.1 3.7.2 5.5v5.9c-.2 3.6-.5 7.3 0 10.9v13c-.4 1.5-.6 2.9-.6 4.5 0 .4.3.7.7.7 1.4 0 2.8-.3 4.3-.4h2.1c1.1.1 2.2.4 3.4.3.2 0 .4-.1.5-.3h.1v-.1c0-.1.1-.2.1-.3.2-10.4.5-20.9 0-31.4 0-.7-.1-1.4-.1-2.1V143c0-.4.1-.8.1-1.2.2-2.3.1-4.5.1-6.8-.2-2.5.3-5.1.1-7.6zm129-24.7c.2-1-.1-2.2.1-3.2 0-.2-.1-.4-.3-.4-1.4-.1-2.8 0-4.2.1-1.8.1-3.5-.1-5.3 0-1.6.1-1.7.5-1.6 1.6-.1.3-.1.6 0 1 .2 1.1.4 2.1.5 3.2v5.4c-.2 2.5-.2 4.8 0 7.3v1.7c0 2-.3 3.9-.4 5.9 0 1.6.2 3.1.4 4.7-.1 1.1-.3 2.2-.3 3.3 0 .9-.1 1.8-.2 2.7v1.4c0 .1-.1.3-.1.5l-4.1-4.3c-.8-1.1-1.7-2.2-2.6-3.2-4-4.4-8.4-8.6-12.5-13-4-4.3-7.7-8.7-12-12.7-1.8-1.7-3-4.5-5.2-5.5l-.9-.6c-.4-.3-.9-.6-1.3-.8h-.2c-.2 0-.3.1-.3.3-.1.1-.1.2-.1.3.1.4 0 .9 0 1.3 0 .1 0 .3.1.4v.5c0 1.4.1 2.8 0 4.1v3.8c0 .4-.1.9-.1 1.3 0 .8.1 1.6.2 2.3v.8c0 .3 0 .6-.1.8-.6 5.1 0 10.4.1 15.5.1 9.7-.6 19.5-.2 29.1v.3c0 .6 0 1.2.1 1.9v.4c0 .2.2.4.4.3 1.3-.4 3.2-.3 4.5-.1.4.1.8 0 1.2 0 1.1.1 2.1.2 3 0h1.6c.2 0 .3-.1.3-.3-.1-1.9.1-4.2-.4-6.2v-17.7c.3-.8.1-2.1.1-3 0-1.9.2-3.8.4-5.7.1-1.5-.1-3.1-.1-4.6 0-.3.1-.6.2-1 .7.6 1.4 1.2 2 1.9 1.7 2 3.7 3.7 5.5 5.7 3.4 3.9 7.2 7.3 10.5 11.3 2.9 3.5 6.1 7.3 9.7 10 .2.2.4.3.6.5.5.7 1.1 1.3 1.7 2 .7 1 1.3 2 2.2 2.9.5.6 1.2 1.1 1.9 1.5.8.8 1.6 1.5 2.2 2.5.1.1.1.2.2.3.1.1.1.3.2.3.4.4 1.3 1 1.8 1 .2 0 .3-.1.3-.3.1-.9 0-1.9 0-2.9 0-.7 0-1.5-.1-2.2v-6.8c.2-1.6.3-3.2.2-4.8-.1-5.4.2-10.9-.1-16.3-.2-8.5 1-17.5.5-26.5zm98.4 107.7c0-1.5-.1-3-.2-4.4 0-.2-.2-.3-.3-.3-.4 0-.8 0-1.2.1-.5 0-1 0-1.7.1-1.7.2-3.5.3-5.2.4h-7.7c-1.6 0-3.3-.1-4.9-.3-1.9-.1-4.1.1-6-.3v-5.1c.1-1 .2-2.1.3-3.1.1-1.5-.1-2.9-.2-4.4-.1-1.4 0-2.5.3-3.7h2.7c.6.1 1.1.2 1.7.2 2 .1 4-.1 6-.2.7 0 1.4 0 2.2-.1h8.5c.9 0 1.8.1 2.7.1.1 0 .2 0 .3-.1h.7c.2 0 .4-.2.3-.4-.4-1.2-.2-2.7-.2-4 .1-1.2 0-2.4-.3-3.4-.1-.5-.1-1.1-.1-1.6 0-.2-.1-.3-.3-.3-1-.1-2-.2-3-.2-3.1-.1-6.3.7-9.5.7-3.9 0-7.7-.1-11.6-.1v-1.1c.1-.9 0-2-.1-2.7-.1-.5-.1-1-.2-1.6v-10.1c.6.1 1.3.1 2 .1 2.1.6 4.7.3 6.4.1 1.1-.1 2.3-.2 3.4-.4h8.9c1.5.1 3 .3 4.5.3.6.1 1.1 0 1.7 0 .3 0 .4-.2.3-.4-.2-1.4-.2-2.9-.4-4.4.1-1.1.3-2.4.2-3.4.1-.6.1-1.2.1-1.8 0-.2-.1-.3-.3-.3h-1c-.1 0-.2-.1-.3-.1-2.5-.4-5.5.3-8 .4-3.2.1-6.3.1-9.5.1-5.3.1-10.9-.7-16.2-.2h-.5c-.6-.1-1.2-.1-1.7.1-.1 0-.3.2-.3.3v1.3c0 .1 0 .1.1.1.2.6.2 1.1.3 1.7 0 .2 0 .3.1.5v7.1c-.1 1.3-.2 2.7-.3 4-.2 4.9 0 9.8 0 14.7-.1 8.6-.2 17.3-.2 25.9v.2c0 1.7 0 3.5.1 5.2 0 .1 0 .2.1.3v.3c0 .2.2.4.4.3 3-.9 6.3-.2 9.4-.7h9.1c3 0 6 .3 8.9.2.9 0 1.7-.1 2.6-.2h.3c.9 0 1.8.1 2.7.1 1.4 0 2.8.3 4.2.1.1 0 .2-.1.2-.2.1-.6.1-1.2.1-1.8-.3-1.3-.3-2.5-.4-3.6zm-3.2-30.3zm25.7 137.8L401.1 291c-1.1-2.8-2.4-5.5-3.7-8.1l-4.6-10c-1.1-2.8-2.2-5.6-3.7-8.2l-.4-.9c-.2-.6-.6-1.1-.9-1.7-.1-.2-.5-.2-.6 0-.2.5-.5 1.1-.6 1.6v.1c-1.4 1.7-1.7 3.9-2.7 6-1.6 3.1-3.1 6.2-4.5 9.5-2.8 6.8-6.5 13.2-9 20.2l-1.1 2.5c-.8 1.3-1.3 2.7-1.9 4.2-.8 1.9-1.9 3.7-2.7 5.6-.9 2.3-2 4.5-3.1 6.7-.2.5-.5 1-.6 1.5-.1.2-.3.3-.4.5-.5.8-.9 1.6-1.3 2.4-.3.7-.8 1.3-1 2-.3.2-.1.7.3.6h.2c.9.1 2 0 2.8 0h2.7c.6 0 1.2 0 1.9.1.3 0 2 .3 2.9 0 .1 0 .2 0 .3-.1.2-.1.4-.3.4-.5.8-1.5 1.3-3.3 2.1-4.8 1-1.8 1.7-3.8 2.4-5.7.3-.7.5-1.3.6-1.9l.6-1.4h1.2c3.7.4 7.4.2 11.2.1 2.5-.1 4.9.1 7.4 0h3.9c.2.1.4.3.6.5l2.3 5.4c.6 2.3 1 4.7 2.2 6.7 0 .2.1.3.1.5.1.4.2 1.7.9 1.7h.7c.7 0 1.4-.1 2.1-.1.8 0 1.7 0 2.6-.1 1.9.1 3.9-.1 5.8-.2.2 0 .3-.2.3-.4 0-.3-.2-.6-.4-.9-1.2-2.4-2.2-4.5-3.2-6.5zm-22.4-15.3c-1.2-.2-2.4-.3-3.5-.4-1.5 0-2.9.1-4.4.2-1.3.1-2.6-.1-4-.3l.8-1.9c.3-.4.5-.8.7-1.1 1-1.8 1.6-3.9 2.3-5.8.9-2.4 2.1-4.7 3.2-7 .6-1.2 1-2.4 1.6-3.6l1.1 2.6c1.4 6 5.4 11.2 7 17.2h-4.8zm58.5 60.6c0-.1 0-.1-.1-.2l.1.1v.1zM325.2 256.3c-2 0-3.9.2-5.8.5h-1.2c-2 0-4 .1-6.1.2-1.8.1-3.6.2-5.4.2-1.7 0-3.4.2-5.1.3-.7.1-1.4.1-2.2.2.7-1.3 1.5-2.6 2.2-3.9.9-1.6 1.9-3.2 2.7-4.9 2.1-4.2 4.2-7.8 6.6-10.8 2.2-2.8 3.5-5.6 4.9-8.5l.8-1.7c.6-1.2 1.3-2.3 2-3.5.8-1.2 1.6-2.5 2.2-3.9.1 0 .1-.1.1-.2.7-.9 1.3-1.9 1.9-2.8.4-.5-.1-1.1-.6-1.1-1.1-.1-2.3-.2-3.5 0-2.2-.2-4.5-.2-6.7-.2s-4.5 0-6.8-.2c-2.6-.3-5.1-.2-7.6 0-.4 0-.7.1-1 .2-3.9.4-7.8.3-11.7.4-.5-.1-1-.1-1.5-.2-1.8-.1-3.5-.1-5.3-.1h-2.2c-5.2 0-11 0-16.8-.1-2.8-.1-5.6-.1-8.4-.1-8.4-.1-16.7.1-24.6.5l-7.5.3H197c-1.5-.1-3.1-.2-4.8-.4-.8-.1-1.6-.2-2.5-.1-.4.1-.6.6-.5.9.5 1.4 1.5 2.6 2.3 3.9.8 2.1 2.3 3.9 3.5 5.9 2.1 3.1 3.7 6.5 5.6 9.8 2 3.5 4 7.1 6.4 10.3.1.1.2.2.2.3l5.6 9.6c-1.2.1-2.3.2-3.4.3-1.7.2-3.4.4-5.3.4-1.5 0-2.9-.1-4.3-.1-1.2 0-2.4-.1-3.6-.1-1.7-.2-3.4-.1-5.1-.1-.1 0-.2-.1-.4-.1-1 .1-4.4-.6-5 .7-.4.9-.5 1.8-.4 2.8.1.5.2 1.1.3 1.6-.1 1-.2 2.1-.1 3.1-.1.3-.1.5-.1.8-.1 1.4-.1 2.8 1.5 2.9.8.1 1.6 0 2.4-.1.2 0 .4.1.6.1.6 0 1.2 0 1.7-.1h.9l4.8.3c1.8 0 3.5-.1 5.3-.3 2.3.3 4.6.1 6.9.1 2.7 0 5.4.2 8.1.2h1.3c3.6 6 7.1 12 10.6 18.1 3 5.1 5.9 10.1 8.9 15.2 3.6 6.1 6.4 11.4 8.7 16.5l.5 1.1c1.3 3 2.9 6.5 5.4 8.7.6 1 1.1 2 1.9 2.9.4.5.9.5 1.2 0 .4-.6.8-1.1 1.2-1.7.4-.3.7-.7.7-1.2 1.9-3.1 3.5-6.4 4.9-9.8l.1-.1c1.1-1.5 2.2-3.1 3.1-4.7 1.5-2.8 3.1-5.5 4.6-8.3 1.7-2.9 3.3-5.8 4.9-8.7 1.5-2.8 3.2-5.5 4.9-8.2 1.6-2.6 3.3-5.3 4.8-8 1-1.8 2.2-3.6 3.3-5.3 1.4-2.2 2.9-4.4 4.1-6.9 2.8.1 5.6.2 8.4.2 1.2 0 4 .1 6.1-.2h2.6c2 0 3.9-.2 5.8-.3.9-.1 1.8-.1 2.6-.2 2.5.2 5.2.6 7.6.2.3 0 .6-.4.5-.7-.3-3.6-.2-7.3-.6-10.9.2-.5-.1-.8-.5-.9zm-47.5 17.2l-3.5 6.1c-.9 1.4-1.7 2.8-2.6 4.2-1.4 2.2-2.8 4.4-4.1 6.6-3.4 5.8-6.7 11.7-9.9 17.4l-1.4 2.5c-.9-2-2.1-3.8-3.2-5.6-.4-.6-.8-1.3-1.2-1.9-2.6-4.1-5-8.6-7.1-13.2-1.7-3.6-3.8-6.8-5.9-10-.6-.9-1.2-1.8-1.8-2.8-.5-.8-1-1.7-1.5-2.5-.7-1.1-1.3-2.2-2.1-3.3-.3-.4-.6-.8-.8-1 1.2 0 2.4 0 3.6-.1 3.8-.3 7.3-.5 10.8-.6 1.4 0 2.9-.1 4.3-.1 4.3 0 8.6.1 12.9.2 3.1.1 6.3.1 9.6.2 1.7 0 3.3-.2 4.6-.2.5 0 1-.1 1.5 0-.8 1.2-1.5 2.7-2.2 4.1zm1.6-16.3c-2.1-.2-4.3-.3-6.5-.4h-1.1c-2.4 0-5 .2-7.9.5-.4 0-.7.1-1.1.1-1.1 0-2.3-.2-3.4-.3l-2.1-.3c-.9-.1-1.8-.1-2.6-.1-2.7 0-5.3.3-7.8.5-1.7.2-3.5.4-5.3.5-3.7.2-7.5 0-11.2-.1-1.6-.1-3.2-.1-4.7-.2-1.4-2.3-2.8-4.6-4.2-6.8l-6.9-11.9c-.3-.8-.7-1.5-1-2.2-1-2.3-2.1-4.7-3.5-6.9-.3-.6-.8-1.1-1.2-1.5h1.4c4.8 0 9.7 0 14.6.1 1.7 0 3.4 0 5.1.1h1.2c2.7 0 5.4-.2 8-.4 1.1-.1 2.2-.2 3.4-.2 2.1-.1 4.1.1 6.3.4 1.8.2 3.6.5 5.4.5h1.8c4.4 0 8.8-.1 13.1-.2 3.8-.1 7.6-.2 11.5-.2 1.2 0 2.3 0 3.5-.1 3.5-.1 7-.3 10.4-.5 3.3-.2 6.6-.3 9.9-.4l-1.9 3.3c-.3.4-.6.7-.8 1-1.4 1.9-2.5 4.1-3.5 6.2-.3.7-.7 1.4-1 2l-1.9 3.3c-.9 1.5-1.9 2.9-3 4.3-2.3 3.2-4.6 6.5-6.1 10.3-2.3 0-4.7-.2-6.9-.4zm45.1.6h.1-.1zM336.6 378c0-.4-.3-.6-.6-.5-1.3.2-2.5-.2-3.7.2h-2.1c-.6-.1-1.3 0-2.2.1-1 .1-1.9.3-2.9.4h-4.6c-.8-.2-1.6-.4-2.5-.5-1-.1-2.2.2-3.2.4-.1 0-.3.1-.5.1h-5.2c-.3 0-.5-.1-.7-.1h-.5c-.2-.1-.4.1-.4.3-.1 2.1.2 4.3.4 6.4.1 1-.3 2.1.2 3 .1.1.3.2.4.1.7-.3 1.5-.3 2.2-.4 1.2-.1 2.3-.2 3.5-.3h8.5v4.1c-.2.7-.4 1.3-.5 1.8-.2 2.2.3 4.2 0 6.3-3.4 1.8-6.8 2.6-11.7 2.6-.9 0-1.8-.1-2.7-.2-4.5-1.1-9.2-3.3-12.9-6.4-3.7-3.9-5.9-9.2-5.9-15.5 0-2.7.4-5.3 1.2-7.7.5-1.2 1.1-2.4 1.7-3.5 1.2-2.2 3-4 4.9-5.7 1.6-1.5 3.3-2.4 5.1-3.4 2.6-1 5.5-1.6 8.8-1.6 1.1 0 2.2.1 3.3.2 4.3 1 8.5 3.3 11.7 5.3.8.7 1.5.7 2.1-.6.5-1 1.1-2 1.6-3 .7-1.1 1.4-2.2 1.8-3.3.3-.4.5-.8.9-1.2.2-.2.1-.4-.1-.5-.3-.2-.6-.4-.9-.5-.1-.2-.3-.4-.4-.5-4.5-3.4-11.2-4.6-16.6-5.4-9.7-1.4-19.7 2.3-26.9 8.8-7.4 6.6-10.8 16.3-9.6 26 .5 4.6 2.2 9.1 4.6 13.1 1.2 1.9 2.5 3.4 4 4.6.2.2.4.5.7.7 3.1 4.4 8.9 7 13.8 8.7 7.2 2.5 15.4.7 22.6-.7 2.9-.6 5.9-1.7 7.6-3.8.1 0 .1-.1.2-.1.3-.1.6-.3.9-.5.4-.2.7-.4 1.1-.7v-1.2c.2-.8.3-1.8.2-2.7-.1-4.4-.1-8.7 0-13.1 1.5.2 3.8.3 3.9-.8.2-1.3.2-2.7.4-4-.5-1.6-.9-3.2-1-4.8z"/></svg>