<svg id="Layer_1" xmlns="http://www.w3.org/2000/svg" viewBox="0 0 512 512"><style>.st0{fill:#231f20}</style><path class="st0" d="M502.4 123.1c0-.4 0-.4 0 0l-.4-.4-149.5-74.8c-1.2-.4-1.9-.8-3.1-1.2-1.2-.4-2.7-.4-4.3-.4-5.8 0-11.6 2.7-14.3 7.8L244.4 194l108.1 175.5L502.8 125c.8-.4.4-1.5-.4-1.9zm-305.3 39.1v159.3l141.4 70.9-141.4-230.2zm162.8 240.7L476.5 461c15.1 7.8 27.5 2.3 27.5-12V168.8L359.9 402.9zM172.3 123.1L26.2 50.2c-2.7-1.2-5-1.9-7.4-1.9-6.6 0-10.9 5-10.9 13.2v315.4c0 8.5 6.2 18.6 13.6 22.1l128.7 64.3c3.5 1.5 6.6 2.3 9.3 2.3 8.1 0 13.6-6.2 13.6-16.7V124.6c.4-.7 0-1.1-.8-1.5z"/></svg>