<svg id="Layer_1" xmlns="http://www.w3.org/2000/svg" viewBox="0 0 512 512"><style>.st0{stroke-width:.9018}.st0,.st1{fill:none;stroke:#231f20;stroke-miterlimit:10}</style><path class="st0" d="M458 256h-69.4M123.4 256H54"/><path class="st1" d="M472.4 198L398 217.9M114 294.1L39.6 314"/><path class="st0" d="M141.2 322.3L81.1 357M430.9 155l-60.1 34.7"/><path class="st1" d="M314 39.6L294.1 114M198 472.4l19.9-74.4M414.4 97.6l-54.5 54.5M152.1 359.9l-54.5 54.5"/><path class="st0" d="M357 81.1l-34.7 60.1M189.7 370.8L155 430.9M256 54v69.4M256 458v-69.4"/><path class="st1" d="M198 39.6l19.9 74.4M314 472.4L294.1 398"/><path class="st0" d="M357 430.9l-34.7-60.1M189.7 141.2L155 81.1"/><path class="st1" d="M359.9 359.9l54.5 54.5M97.6 97.6l54.5 54.5"/><path class="st0" d="M141.2 189.7L81.1 155M430.9 357l-60.1-34.7"/><path class="st1" d="M398 294.1l74.4 19.9M39.6 198l74.4 19.9"/></svg>